<?xml version="1.0" encoding="utf-8"?>
<!-- Svg Vector Icons : http://www.onlinewebfonts.com/icon -->
<!DOCTYPE svg PUBLIC "-//W3C//DTD SVG 1.1//EN" "http://www.w3.org/Graphics/SVG/1.1/DTD/svg11.dtd">
<svg version="1.1" xmlns="http://www.w3.org/2000/svg" xmlns:xlink="http://www.w3.org/1999/xlink" x="0px" y="0px" viewBox="0 0 256 256" enable-background="new 0 0 256 256" xml:space="preserve">
<metadata> Svg Vector Icons : http://www.onlinewebfonts.com/icon </metadata>
<g><g><path fill="#000000" d="M104.5,209.4c-7.1,8.2-10.3,10.1-20.3,13.8c-15.4,5.7-43.5,16.3-61.8,23.2c-3.5,1.4-16.5,0.7-11.1-12.2c6.2-17.9,15.3-44.3,20.5-59.3c3.8-10.6,5.3-13.4,12.9-20.5l78.9-78.9l55.8,55.8C179.5,131.4,126.4,186.6,104.5,209.4z"/><path fill="#000000" d="M191.5,119.4l-55.8-55.8l11.9-12l55.8,55.8L191.5,119.4z"/><path fill="#000000" d="M239.4,71.5l-23.9,23.9l-55.8-55.8l23.9-23.9c8.8-8.8,23.1-8.8,31.9,0l23.9,23.9C248.2,48.4,248.2,62.7,239.4,71.5z"/></g></g>
</svg>