<svg width="20" height="20" viewBox="0 0 20 20" fill="none" xmlns="http://www.w3.org/2000/svg">
<g clip-path="url(#clip0_358_359)">
<path d="M10.0001 1.6665L8.9155 6.00483C8.70386 6.85138 8.59804 7.27465 8.37765 7.61908C8.18271 7.92373 7.92398 8.18246 7.61932 8.37741C7.2749 8.5978 6.85162 8.70362 6.00507 8.91526L1.66675 9.99984L6.00507 11.0844C6.85162 11.2961 7.2749 11.4019 7.61932 11.6223C7.92398 11.8172 8.18271 12.0759 8.37765 12.3806C8.59805 12.725 8.70386 13.1483 8.9155 13.9948L10.0001 18.3332L11.0847 13.9948C11.2963 13.1483 11.4021 12.725 11.6225 12.3806C11.8175 12.0759 12.0762 11.8172 12.3808 11.6223C12.7253 11.4019 13.1485 11.2961 13.9951 11.0844L18.3334 9.99984L13.9951 8.91526C13.1485 8.70362 12.7253 8.5978 12.3808 8.37741C12.0762 8.18246 11.8175 7.92373 11.6225 7.61908C11.4021 7.27465 11.2963 6.85138 11.0847 6.00483L10.0001 1.6665Z" stroke="#BEDF77" stroke-width="2" stroke-linecap="round" stroke-linejoin="round"/>
</g>
<defs>
<clipPath id="clip0_358_359">
<rect width="20" height="20" fill="white"/>
</clipPath>
</defs>
</svg>
